<mxfile host="Electron" modified="2024-01-05T10:27:46.976Z" agent="Mozilla/5.0 (X11; Linux x86_64) AppleWebKit/537.36 (KHTML, like Gecko) draw.io/22.1.2 Chrome/114.0.5735.289 Electron/25.9.4 Safari/537.36" etag="cOmkdOn7JDWuaDf4NsVo" version="22.1.2" type="device">
  <diagram name="Page-1" id="IEG1l5_leUaPTbvzpUzN">
    <mxGraphModel dx="683" dy="403" grid="1" gridSize="10" guides="1" tooltips="1" connect="1" arrows="1" fold="1" page="1" pageScale="1" pageWidth="3300" pageHeight="2339" math="0" shadow="0">
      <root>
        <mxCell id="0" />
        <mxCell id="1" parent="0" />
        <mxCell id="V2Pc7Q3qlYG6XIp6y3cs-30" value="Head amp" style="rounded=0;whiteSpace=wrap;html=1;fillColor=none;dashed=1;align=left;verticalAlign=top;spacingTop=-7;" vertex="1" parent="1">
          <mxGeometry x="670" y="309.44" width="60" height="70" as="geometry" />
        </mxCell>
        <mxCell id="V2Pc7Q3qlYG6XIp6y3cs-27" value="Head switch" style="rounded=0;whiteSpace=wrap;html=1;fillColor=none;dashed=1;align=left;verticalAlign=top;spacingTop=-7;" vertex="1" parent="1">
          <mxGeometry x="790" y="310" width="120" height="160" as="geometry" />
        </mxCell>
        <mxCell id="V2Pc7Q3qlYG6XIp6y3cs-12" value="" style="group;movable=1;resizable=1;rotatable=1;deletable=1;editable=1;locked=0;connectable=1;" vertex="1" connectable="0" parent="1">
          <mxGeometry x="520" y="310" width="91" height="69.25" as="geometry" />
        </mxCell>
        <mxCell id="V2Pc7Q3qlYG6XIp6y3cs-3" value="" style="ellipse;whiteSpace=wrap;html=1;aspect=fixed;container=0;" vertex="1" parent="V2Pc7Q3qlYG6XIp6y3cs-12">
          <mxGeometry x="21" y="20" width="38.5" height="38.5" as="geometry" />
        </mxCell>
        <mxCell id="V2Pc7Q3qlYG6XIp6y3cs-2" value="" style="pointerEvents=1;verticalLabelPosition=bottom;shadow=0;dashed=0;align=center;html=1;verticalAlign=top;shape=mxgraph.electrical.inductors.half_inductor;rotation=-90;container=0;" vertex="1" parent="V2Pc7Q3qlYG6XIp6y3cs-12">
          <mxGeometry x="44.5" y="24.25" width="32" height="30" as="geometry" />
        </mxCell>
        <mxCell id="V2Pc7Q3qlYG6XIp6y3cs-4" value="" style="rounded=0;whiteSpace=wrap;html=1;strokeColor=none;container=0;" vertex="1" parent="V2Pc7Q3qlYG6XIp6y3cs-12">
          <mxGeometry x="11" y="34.25" width="30" height="10" as="geometry" />
        </mxCell>
        <mxCell id="V2Pc7Q3qlYG6XIp6y3cs-11" value="Head A" style="rounded=0;whiteSpace=wrap;html=1;fillColor=none;align=left;verticalAlign=top;dashed=1;spacing=2;spacingTop=-6;" vertex="1" parent="V2Pc7Q3qlYG6XIp6y3cs-12">
          <mxGeometry width="91" height="69.25" as="geometry" />
        </mxCell>
        <mxCell id="V2Pc7Q3qlYG6XIp6y3cs-18" value="" style="group" vertex="1" connectable="0" parent="1">
          <mxGeometry x="520" y="400" width="91" height="69.25" as="geometry" />
        </mxCell>
        <mxCell id="V2Pc7Q3qlYG6XIp6y3cs-14" value="" style="ellipse;whiteSpace=wrap;html=1;aspect=fixed;container=0;" vertex="1" parent="V2Pc7Q3qlYG6XIp6y3cs-18">
          <mxGeometry x="21" y="20" width="38.5" height="38.5" as="geometry" />
        </mxCell>
        <mxCell id="V2Pc7Q3qlYG6XIp6y3cs-15" value="" style="pointerEvents=1;verticalLabelPosition=bottom;shadow=0;dashed=0;align=center;html=1;verticalAlign=top;shape=mxgraph.electrical.inductors.half_inductor;rotation=-90;container=0;" vertex="1" parent="V2Pc7Q3qlYG6XIp6y3cs-18">
          <mxGeometry x="44.5" y="24.25" width="32" height="30" as="geometry" />
        </mxCell>
        <mxCell id="V2Pc7Q3qlYG6XIp6y3cs-16" value="" style="rounded=0;whiteSpace=wrap;html=1;strokeColor=none;container=0;" vertex="1" parent="V2Pc7Q3qlYG6XIp6y3cs-18">
          <mxGeometry x="11" y="34.25" width="30" height="10" as="geometry" />
        </mxCell>
        <mxCell id="V2Pc7Q3qlYG6XIp6y3cs-17" value="Head B" style="rounded=0;whiteSpace=wrap;html=1;fillColor=none;align=left;verticalAlign=top;dashed=1;spacing=2;spacingTop=-6;" vertex="1" parent="V2Pc7Q3qlYG6XIp6y3cs-18">
          <mxGeometry width="91" height="69.25" as="geometry" />
        </mxCell>
        <mxCell id="V2Pc7Q3qlYG6XIp6y3cs-19" value="RF" style="endArrow=classic;html=1;rounded=0;strokeWidth=3;entryX=0;entryY=0.5;entryDx=0;entryDy=0;exitX=1;exitY=0.5;exitDx=0;exitDy=0;" edge="1" parent="1" source="V2Pc7Q3qlYG6XIp6y3cs-28" target="V2Pc7Q3qlYG6XIp6y3cs-23">
          <mxGeometry x="-0.4937" width="50" height="50" relative="1" as="geometry">
            <mxPoint x="770" y="360" as="sourcePoint" />
            <mxPoint x="720.0000000000002" y="366.72" as="targetPoint" />
            <Array as="points">
              <mxPoint x="760" y="350" />
            </Array>
            <mxPoint as="offset" />
          </mxGeometry>
        </mxCell>
        <mxCell id="V2Pc7Q3qlYG6XIp6y3cs-20" value="RF" style="endArrow=classic;html=1;rounded=0;strokeWidth=3;entryX=0;entryY=0.5;entryDx=0;entryDy=0;exitX=1;exitY=0.5;exitDx=0;exitDy=0;" edge="1" parent="1" source="V2Pc7Q3qlYG6XIp6y3cs-34" target="V2Pc7Q3qlYG6XIp6y3cs-24">
          <mxGeometry x="-0.4952" width="50" height="50" relative="1" as="geometry">
            <mxPoint x="760" y="440" as="sourcePoint" />
            <mxPoint x="720.0000000000002" y="409.28" as="targetPoint" />
            <Array as="points">
              <mxPoint x="760" y="440" />
            </Array>
            <mxPoint as="offset" />
          </mxGeometry>
        </mxCell>
        <mxCell id="V2Pc7Q3qlYG6XIp6y3cs-23" value="" style="ellipse;whiteSpace=wrap;html=1;aspect=fixed;" vertex="1" parent="1">
          <mxGeometry x="820" y="359.25" width="20" height="20" as="geometry" />
        </mxCell>
        <mxCell id="V2Pc7Q3qlYG6XIp6y3cs-24" value="" style="ellipse;whiteSpace=wrap;html=1;aspect=fixed;" vertex="1" parent="1">
          <mxGeometry x="820" y="400" width="20" height="20" as="geometry" />
        </mxCell>
        <mxCell id="V2Pc7Q3qlYG6XIp6y3cs-25" value="" style="ellipse;whiteSpace=wrap;html=1;aspect=fixed;" vertex="1" parent="1">
          <mxGeometry x="880" y="380" width="20" height="20" as="geometry" />
        </mxCell>
        <mxCell id="V2Pc7Q3qlYG6XIp6y3cs-26" value="" style="endArrow=none;html=1;rounded=0;entryX=0;entryY=0.5;entryDx=0;entryDy=0;exitX=1;exitY=0.5;exitDx=0;exitDy=0;strokeWidth=3;" edge="1" parent="1" source="V2Pc7Q3qlYG6XIp6y3cs-23" target="V2Pc7Q3qlYG6XIp6y3cs-25">
          <mxGeometry width="50" height="50" relative="1" as="geometry">
            <mxPoint x="810" y="380" as="sourcePoint" />
            <mxPoint x="860" y="330" as="targetPoint" />
          </mxGeometry>
        </mxCell>
        <mxCell id="V2Pc7Q3qlYG6XIp6y3cs-28" value="" style="triangle;whiteSpace=wrap;html=1;" vertex="1" parent="1">
          <mxGeometry x="680" y="330" width="40" height="40" as="geometry" />
        </mxCell>
        <mxCell id="V2Pc7Q3qlYG6XIp6y3cs-32" value="RF" style="endArrow=classic;html=1;rounded=0;strokeWidth=3;entryX=0;entryY=0.5;entryDx=0;entryDy=0;exitX=1;exitY=0.5;exitDx=0;exitDy=0;" edge="1" parent="1" source="V2Pc7Q3qlYG6XIp6y3cs-11" target="V2Pc7Q3qlYG6XIp6y3cs-28">
          <mxGeometry x="-0.1886" width="50" height="50" relative="1" as="geometry">
            <mxPoint x="770" y="450" as="sourcePoint" />
            <mxPoint x="830" y="420" as="targetPoint" />
            <Array as="points">
              <mxPoint x="620" y="350" />
            </Array>
            <mxPoint as="offset" />
          </mxGeometry>
        </mxCell>
        <mxCell id="V2Pc7Q3qlYG6XIp6y3cs-33" value="Head amp" style="rounded=0;whiteSpace=wrap;html=1;fillColor=none;dashed=1;align=left;verticalAlign=top;spacingTop=-7;" vertex="1" parent="1">
          <mxGeometry x="670" y="399.07" width="60" height="70" as="geometry" />
        </mxCell>
        <mxCell id="V2Pc7Q3qlYG6XIp6y3cs-34" value="" style="triangle;whiteSpace=wrap;html=1;" vertex="1" parent="1">
          <mxGeometry x="680" y="420" width="40" height="40" as="geometry" />
        </mxCell>
        <mxCell id="V2Pc7Q3qlYG6XIp6y3cs-35" value="RF" style="endArrow=classic;html=1;rounded=0;strokeWidth=3;entryX=0;entryY=0.5;entryDx=0;entryDy=0;exitX=1;exitY=0.5;exitDx=0;exitDy=0;" edge="1" parent="1" source="V2Pc7Q3qlYG6XIp6y3cs-17" target="V2Pc7Q3qlYG6XIp6y3cs-34">
          <mxGeometry x="-0.1887" width="50" height="50" relative="1" as="geometry">
            <mxPoint x="621" y="355" as="sourcePoint" />
            <mxPoint x="670" y="360" as="targetPoint" />
            <Array as="points">
              <mxPoint x="620" y="440" />
            </Array>
            <mxPoint as="offset" />
          </mxGeometry>
        </mxCell>
        <mxCell id="V2Pc7Q3qlYG6XIp6y3cs-36" value="Signal demodulation and decoding" style="rounded=0;whiteSpace=wrap;html=1;fillColor=none;dashed=1;align=center;verticalAlign=middle;spacingTop=0;" vertex="1" parent="1">
          <mxGeometry x="970" y="310" width="80" height="160" as="geometry" />
        </mxCell>
        <mxCell id="V2Pc7Q3qlYG6XIp6y3cs-37" value="RF" style="endArrow=classic;html=1;rounded=0;strokeWidth=3;entryX=0;entryY=0.5;entryDx=0;entryDy=0;" edge="1" parent="1" source="V2Pc7Q3qlYG6XIp6y3cs-25" target="V2Pc7Q3qlYG6XIp6y3cs-36">
          <mxGeometry width="50" height="50" relative="1" as="geometry">
            <mxPoint x="930" y="390" as="sourcePoint" />
            <mxPoint x="830" y="420" as="targetPoint" />
          </mxGeometry>
        </mxCell>
        <mxCell id="V2Pc7Q3qlYG6XIp6y3cs-38" value="Tap point" style="endArrow=classic;html=1;rounded=0;strokeColor=#0000FF;strokeWidth=3;" edge="1" parent="1">
          <mxGeometry x="-1" width="50" height="50" relative="1" as="geometry">
            <mxPoint x="940" y="460" as="sourcePoint" />
            <mxPoint x="920" y="390" as="targetPoint" />
            <mxPoint as="offset" />
          </mxGeometry>
        </mxCell>
      </root>
    </mxGraphModel>
  </diagram>
</mxfile>
